# xmcd
# 
# Track frame offsets:
#     150
#     17308
#     38778
#     61401
#     80270
#     98802
#     119579
#     137609
#     155164
#     174692
#     193917
#     212228
# 
# Disc length: 3123
# 
# Revision: 24
# Processed by: cddbd v1.5.2PL0 Copyright (c) Steve Scherf et al.
# Submitted via: BonkEnc v1.0.8
# 
DISCID=a50c310c
DTITLE=周杰伦 - 十一月的萧邦
DYEAR=2005
DGENRE=Blues
TTITLE0=夜曲
TTITLE1=蓝色风暴
TTITLE2=发如雪
TTITLE3=黑色毛衣
TTITLE4=四面楚歌
TTITLE5=枫
TTITLE6=浪漫手机
TTITLE7=逆鳞
TTITLE8=麦芽糖
TTITLE9=珊瑚海 (feat. Lara)
TTITLE10=飘移
TTITLE11=一路向北
EXTD=YEAR: 2005 ID3G:   0
EXTT0=
EXTT1=
EXTT2=
EXTT3=
EXTT4=
EXTT5=
EXTT6=
EXTT7=
EXTT8=
EXTT9=
EXTT10=
EXTT11=
PLAYORDER=
